HIERARCHY
ROOT newVegas:Hips
{
	OFFSET 0.000000 96.479958 0.000000
	CHANNELS 6 Xposition Yposition Zposition Xrotation Yrotation Zrotation
	JOINT newVegas:Pelvis
	{
		OFFSET 0.000000 0.000000 0.000000
		CHANNELS 3 Xrotation Yrotation Zrotation
		JOINT newVegas:LeftUpLeg
		{
			OFFSET 18.735201 -5.666702 -4.541200
			CHANNELS 3 Xrotation Yrotation Zrotation
			JOINT newVegas:LeftLeg
			{
				OFFSET -0.021200 -31.938179 0.493100
				CHANNELS 3 Xrotation Yrotation Zrotation
				JOINT newVegas:LeftFoot
				{
					OFFSET 0.021200 -31.938179 -4.336299
					CHANNELS 3 Xrotation Yrotation Zrotation
					JOINT newVegas:LeftToeBase
					{
						OFFSET 0.943001 -26.722000 15.023500
						CHANNELS 3 Xrotation Yrotation Zrotation
						End Site
						{
							OFFSET 0.000000 30.670183 0.000000
						}
					}
				}
				JOINT newVegas:Left_PantLeg
				{
					OFFSET 0.663870 -9.044666 -1.108900
					CHANNELS 3 Xrotation Yrotation Zrotation
					End Site
					{
						OFFSET 1.415995 20.635357 0.000000
					}
				}
			}
		}
		JOINT newVegas:RightUpLeg
		{
			OFFSET -18.735201 -5.666702 -4.541200
			CHANNELS 3 Xrotation Yrotation Zrotation
			JOINT newVegas:RightLeg
			{
				OFFSET 0.018946 -31.938133 0.493100
				CHANNELS 3 Xrotation Yrotation Zrotation
				JOINT newVegas:RightFoot
				{
					OFFSET -0.018946 -31.938126 -4.336299
					CHANNELS 3 Xrotation Yrotation Zrotation
					JOINT newVegas:RightToeBase
					{
						OFFSET -0.943001 -26.722004 15.023500
						CHANNELS 3 Xrotation Yrotation Zrotation
						End Site
						{
							OFFSET 0.000000 30.670187 0.000000
						}
					}
				}
				JOINT newVegas:Right_PantLeg
				{
					OFFSET -0.661674 -9.044716 -1.108900
					CHANNELS 3 Xrotation Yrotation Zrotation
					End Site
					{
						OFFSET -1.415958 20.635269 0.000000
					}
				}
			}
		}
	}
	JOINT newVegas:Spine
	{
		OFFSET 0.000000 10.199997 -0.299500
		CHANNELS 3 Xrotation Yrotation Zrotation
		JOINT newVegas:Spine1
		{
			OFFSET 0.000000 11.900002 -1.516600
			CHANNELS 3 Xrotation Yrotation Zrotation
			JOINT newVegas:Spine2
			{
				OFFSET 0.000000 13.600006 -2.842500
				CHANNELS 3 Xrotation Yrotation Zrotation
				JOINT newVegas:Neck
				{
					OFFSET 0.000000 9.624100 -2.890100
					CHANNELS 3 Xrotation Yrotation Zrotation
					JOINT newVegas:Head
					{
						OFFSET 0.000000 14.068802 -1.351900
						CHANNELS 3 Xrotation Yrotation Zrotation
						JOINT newVegas:Hair_Back
						{
							OFFSET 0.000000 3.231903 -17.524799
							CHANNELS 3 Xrotation Yrotation Zrotation
							End Site
							{
								OFFSET 0.000000 19.849884 0.000000
							}
						}
						JOINT newVegas:Hair_Front
						{
							OFFSET 0.000000 31.260406 4.573800
							CHANNELS 3 Xrotation Yrotation Zrotation
							JOINT newVegas:Hair_Front1
							{
								OFFSET 0.000000 2.284103 11.993300
								CHANNELS 3 Xrotation Yrotation Zrotation
								JOINT newVegas:Hair_Front2
								{
									OFFSET 0.000000 2.284103 11.993300
									CHANNELS 3 Xrotation Yrotation Zrotation
									End Site
									{
										OFFSET 0.000000 12.208862 0.000000
									}
								}
							}
						}
						JOINT newVegas:Jowel
						{
							OFFSET 0.000000 -7.458206 6.864100
							CHANNELS 3 Xrotation Yrotation Zrotation
							End Site
							{
								OFFSET 0.000000 19.849884 0.000000
							}
						}
					}
				}
				JOINT newVegas:LeftShoulder
				{
					OFFSET 15.263000 10.923401 -0.547700
					CHANNELS 3 Xrotation Yrotation Zrotation
					JOINT newVegas:LeftArm
					{
						OFFSET 25.438599 -2.830597 -13.032500
						CHANNELS 3 Xrotation Yrotation Zrotation
						JOINT newVegas:LeftForeArm
						{
							OFFSET 29.960503 0.000000 0.000000
							CHANNELS 3 Xrotation Yrotation Zrotation
							JOINT newVegas:LeftHand
							{
								OFFSET 27.849251 0.000000 0.000000
								CHANNELS 3 Xrotation Yrotation Zrotation
								JOINT newVegas:LeftHandThumb1
								{
									OFFSET 4.487587 -3.305161 6.305391
									CHANNELS 3 Xrotation Yrotation Zrotation
									JOINT newVegas:LeftHandThumb2
									{
										OFFSET 5.480453 -3.164139 3.164143
										CHANNELS 3 Xrotation Yrotation Zrotation
										JOINT newVegas:LeftHandThumb3
										{
											OFFSET 5.159721 -2.978973 2.978967
											CHANNELS 3 Xrotation Yrotation Zrotation
											End Site
											{
												OFFSET 2.494507 5.926697 1.738678
											}
										}
									}
								}
								JOINT newVegas:LeftHandIndex1
								{
									OFFSET 18.578728 -0.527832 5.208049
									CHANNELS 3 Xrotation Yrotation Zrotation
									JOINT newVegas:LeftHandIndex2
									{
										OFFSET 3.192009 0.000000 0.000000
										CHANNELS 3 Xrotation Yrotation Zrotation
										JOINT newVegas:LeftHandIndex3
										{
											OFFSET 3.835129 0.000000 0.000000
											CHANNELS 3 Xrotation Yrotation Zrotation
											End Site
											{
												OFFSET -0.034599 3.816971 0.371180
											}
										}
									}
								}
								JOINT newVegas:LeftHandMiddle1
								{
									OFFSET 18.476105 0.000000 0.000000
									CHANNELS 3 Xrotation Yrotation Zrotation
									JOINT newVegas:LeftHandMiddle2
									{
										OFFSET 3.324875 0.000000 0.000000
										CHANNELS 3 Xrotation Yrotation Zrotation
										JOINT newVegas:LeftHandMiddle3
										{
											OFFSET 4.596550 0.000000 0.000000
											CHANNELS 3 Xrotation Yrotation Zrotation
											End Site
											{
												OFFSET 0.057701 4.578827 0.399218
											}
										}
									}
								}
								JOINT newVegas:LeftHandRing1
								{
									OFFSET 17.732719 0.121887 -4.201567
									CHANNELS 3 Xrotation Yrotation Zrotation
									JOINT newVegas:LeftHandRing2
									{
										OFFSET 2.733170 0.000000 0.000000
										CHANNELS 3 Xrotation Yrotation Zrotation
										JOINT newVegas:LeftHandRing3
										{
											OFFSET 3.178268 0.000000 0.000000
											CHANNELS 3 Xrotation Yrotation Zrotation
											End Site
											{
												OFFSET 0.119102 3.170624 0.185394
											}
										}
									}
								}
								JOINT newVegas:LeftHandPinky1
								{
									OFFSET 15.989624 -0.606689 -7.535461
									CHANNELS 3 Xrotation Yrotation Zrotation
									JOINT newVegas:LeftHandPinky2
									{
										OFFSET 2.538986 0.000000 0.000000
										CHANNELS 3 Xrotation Yrotation Zrotation
										JOINT newVegas:LeftHandPinky3
										{
											OFFSET 2.593102 0.000000 0.000000
											CHANNELS 3 Xrotation Yrotation Zrotation
											End Site
											{
												OFFSET -0.150902 2.584198 0.152708
											}
										}
									}
								}
							}
							JOINT newVegas:Left_Sleeve
							{
								OFFSET 0.267448 -0.649796 0.577675
								CHANNELS 3 Xrotation Yrotation Zrotation
								End Site
								{
									OFFSET 0.000000 15.991241 0.000000
								}
							}
							JOINT newVegas:Left_CapeC
							{
								OFFSET 15.715958 -8.608795 -6.935905
								CHANNELS 3 Xrotation Yrotation Zrotation
								JOINT newVegas:Left_CapeC1
								{
									OFFSET 0.000000 -8.688499 0.000000
									CHANNELS 3 Xrotation Yrotation Zrotation
									End Site
									{
										OFFSET 0.000000 8.688499 0.000000
									}
								}
							}
						}
						JOINT newVegas:Left_CapeB
						{
							OFFSET 26.118385 -8.608795 -7.079235
							CHANNELS 3 Xrotation Yrotation Zrotation
							JOINT newVegas:Left_CapeB1
							{
								OFFSET 0.000000 -8.688499 0.000000
								CHANNELS 3 Xrotation Yrotation Zrotation
								End Site
								{
									OFFSET 0.000000 8.688499 0.000000
								}
							}
						}
						JOINT newVegas:Left_CapeA
						{
							OFFSET 5.115639 -8.608795 -10.395809
							CHANNELS 3 Xrotation Yrotation Zrotation
							JOINT newVegas:Left_CapeA1
							{
								OFFSET 0.000000 -8.688499 0.000000
								CHANNELS 3 Xrotation Yrotation Zrotation
								End Site
								{
									OFFSET 0.000000 8.688499 0.000000
								}
							}
						}
					}
				}
				JOINT newVegas:RightShoulder
				{
					OFFSET -15.263000 10.923401 -0.547700
					CHANNELS 3 Xrotation Yrotation Zrotation
					JOINT newVegas:RightArm
					{
						OFFSET -25.438599 -2.830597 -13.032500
						CHANNELS 3 Xrotation Yrotation Zrotation
						JOINT newVegas:RightForeArm
						{
							OFFSET -29.960503 0.000000 0.000000
							CHANNELS 3 Xrotation Yrotation Zrotation
							JOINT newVegas:RightHand
							{
								OFFSET -27.849251 0.000000 0.000000
								CHANNELS 3 Xrotation Yrotation Zrotation
								JOINT newVegas:RightHandThumb1
								{
									OFFSET -4.487587 -3.305161 6.305391
									CHANNELS 3 Xrotation Yrotation Zrotation
									JOINT newVegas:RightHandThumb2
									{
										OFFSET -5.480453 -3.164139 3.164143
										CHANNELS 3 Xrotation Yrotation Zrotation
										JOINT newVegas:RightHandThumb3
										{
											OFFSET -5.159721 -2.978973 2.978967
											CHANNELS 3 Xrotation Yrotation Zrotation
											End Site
											{
												OFFSET -2.494507 5.926697 1.738678
											}
										}
									}
								}
								JOINT newVegas:RightHandIndex1
								{
									OFFSET -18.578728 -0.527832 5.208049
									CHANNELS 3 Xrotation Yrotation Zrotation
									JOINT newVegas:RightHandIndex2
									{
										OFFSET -3.192009 0.000000 0.000000
										CHANNELS 3 Xrotation Yrotation Zrotation
										JOINT newVegas:RightHandIndex3
										{
											OFFSET -3.835129 0.000000 0.000000
											CHANNELS 3 Xrotation Yrotation Zrotation
											End Site
											{
												OFFSET 0.034599 3.816971 0.371180
											}
										}
									}
								}
								JOINT newVegas:RightHandMiddle1
								{
									OFFSET -18.476105 0.000000 0.000000
									CHANNELS 3 Xrotation Yrotation Zrotation
									JOINT newVegas:RightHandMiddle2
									{
										OFFSET -3.324875 0.000000 0.000000
										CHANNELS 3 Xrotation Yrotation Zrotation
										JOINT newVegas:RightHandMiddle3
										{
											OFFSET -4.596550 0.000000 0.000000
											CHANNELS 3 Xrotation Yrotation Zrotation
											End Site
											{
												OFFSET -0.057701 4.578827 0.399218
											}
										}
									}
								}
								JOINT newVegas:RightHandRing1
								{
									OFFSET -17.732719 0.121887 -4.201567
									CHANNELS 3 Xrotation Yrotation Zrotation
									JOINT newVegas:RightHandRing2
									{
										OFFSET -2.733170 0.000000 0.000000
										CHANNELS 3 Xrotation Yrotation Zrotation
										JOINT newVegas:RightHandRing3
										{
											OFFSET -3.178268 0.000000 0.000000
											CHANNELS 3 Xrotation Yrotation Zrotation
											End Site
											{
												OFFSET -0.119102 3.170624 0.185394
											}
										}
									}
								}
								JOINT newVegas:RightHandPinky1
								{
									OFFSET -15.989624 -0.606689 -7.535461
									CHANNELS 3 Xrotation Yrotation Zrotation
									JOINT newVegas:RightHandPinky2
									{
										OFFSET -2.538986 0.000000 0.000000
										CHANNELS 3 Xrotation Yrotation Zrotation
										JOINT newVegas:RightHandPinky3
										{
											OFFSET -2.593102 0.000000 0.000000
											CHANNELS 3 Xrotation Yrotation Zrotation
											End Site
											{
												OFFSET 0.150902 2.584198 0.152708
											}
										}
									}
								}
							}
							JOINT newVegas:Right_CapeC
							{
								OFFSET -15.715958 -8.608795 -6.935905
								CHANNELS 3 Xrotation Yrotation Zrotation
								JOINT newVegas:Right_CapeC1
								{
									OFFSET 0.000000 -8.688499 0.000000
									CHANNELS 3 Xrotation Yrotation Zrotation
									End Site
									{
										OFFSET 0.000000 8.688499 0.000000
									}
								}
							}
							JOINT newVegas:Right_Sleeve
							{
								OFFSET -0.267448 -0.649994 0.577675
								CHANNELS 3 Xrotation Yrotation Zrotation
								End Site
								{
									OFFSET 0.000000 15.991302 0.000000
								}
							}
						}
						JOINT newVegas:Right_CapeA
						{
							OFFSET -5.115540 -8.608795 -10.395824
							CHANNELS 3 Xrotation Yrotation Zrotation
							JOINT newVegas:Right_CapeA1
							{
								OFFSET 0.000000 -8.688499 0.000000
								CHANNELS 3 Xrotation Yrotation Zrotation
								End Site
								{
									OFFSET 0.000000 8.688499 0.000000
								}
							}
						}
						JOINT newVegas:Right_CapeB
						{
							OFFSET -26.118187 -8.608795 -7.079266
							CHANNELS 3 Xrotation Yrotation Zrotation
							JOINT newVegas:Right_CapeB1
							{
								OFFSET 0.000000 -8.688499 0.000000
								CHANNELS 3 Xrotation Yrotation Zrotation
								End Site
								{
									OFFSET 0.000000 8.688499 0.000000
								}
							}
						}
					}
				}
				JOINT newVegas:Left_Collar
				{
					OFFSET 18.625099 8.655502 8.828100
					CHANNELS 3 Xrotation Yrotation Zrotation
					JOINT newVegas:Left_Collar1
					{
						OFFSET 14.783401 10.540405 -1.259500
						CHANNELS 3 Xrotation Yrotation Zrotation
						End Site
						{
							OFFSET 0.000000 18.199875 0.000000
						}
					}
				}
				JOINT newVegas:Collar_Back
				{
					OFFSET 0.000000 15.630707 -20.132601
					CHANNELS 3 Xrotation Yrotation Zrotation
					End Site
					{
						OFFSET 0.000000 22.523010 0.000000
					}
				}
				JOINT newVegas:Left_Peck
				{
					OFFSET 17.239599 -5.132599 25.482599
					CHANNELS 3 Xrotation Yrotation Zrotation
					End Site
					{
						OFFSET 0.000000 22.523010 0.000000
					}
				}
				JOINT newVegas:Right_Peck
				{
					OFFSET -17.239599 -5.132202 25.482599
					CHANNELS 3 Xrotation Yrotation Zrotation
					End Site
					{
						OFFSET 0.000000 22.523010 0.000000
					}
				}
				JOINT newVegas:Right_Collar
				{
					OFFSET -18.625099 8.655792 8.828100
					CHANNELS 3 Xrotation Yrotation Zrotation
					JOINT newVegas:Right_Collar1
					{
						OFFSET -14.783401 10.539993 -1.259500
						CHANNELS 3 Xrotation Yrotation Zrotation
						End Site
						{
							OFFSET 0.000000 18.199631 0.000000
						}
					}
				}
			}
		}
		JOINT newVegas:Belly
		{
			OFFSET 0.000000 -6.540398 9.014299
			CHANNELS 3 Xrotation Yrotation Zrotation
			End Site
			{
				OFFSET 0.000000 11.566666 0.000000
			}
		}
	}
	JOINT newVegas:ElvisFacialAnim_Joint
	{
		OFFSET 1.000000 -95.330101 -8.825800
		CHANNELS 3 Xrotation Yrotation Zrotation
		End Site
		{
			OFFSET 0.000000 35.315800 0.000000
		}
	}
}
MOTION
Frames: 4
Frame Time: 0.033333
-2.589230 88.267464 2.773023 -6.639416 -42.797036 -4.178909 -0.000000 0.000001 0.000000 -33.178245 3.370842 15.879502 38.129190 -14.790078 -0.140920 -2.091232 0.967324 -10.463052 -0.000000 -0.000001 -0.000000 0.000000 0.000001 0.000001 3.578271 -14.236497 -18.464752 30.096880 -7.999640 -0.230147 -23.864275 -6.275637 21.807595 -0.000000 0.000002 -0.000000 0.000003 -0.000001 -0.000000 5.393629 4.508204 -1.351368 10.903255 9.015350 -2.786705 10.903250 9.015340 -2.786702 -0.386956 -0.242870 0.041247 -0.386925 -0.242862 0.041228 0.000001 -0.000001 -0.000000 -0.387213 -0.242882 0.041259 -0.386782 -0.242991 0.041283 0.000000 -0.000002 0.000001 0.000001 -0.000001 0.000000 1.665344 1.443342 -4.597605 -13.162269 1.915892 -65.474091 10.916772 -49.438408 5.736387 15.640551 0.292195 11.503341 9.713303 5.969774 -5.143098 -0.322125 0.123955 0.781911 0.000000 0.000000 0.000001 -1.043508 -7.399638 -8.322790 -0.221015 0.095528 -22.634868 0.000003 -0.000002 0.000001 1.390852 7.781444 -15.964259 -0.525752 -1.729073 -23.510508 0.000000 0.000002 0.000000 1.510237 13.266826 -32.571851 -0.635828 -2.796663 -33.656799 0.000001 -0.000000 -0.000002 2.982787 16.977029 -36.227013 -0.730508 -5.815632 -41.020402 0.000003 -0.000005 -0.000003 -0.000002 -0.000000 0.000001 -0.000002 -0.000000 0.000001 -0.000003 -0.000000 0.000001 -0.000000 0.000000 -0.000002 0.000000 0.000001 -0.000002 -0.000000 0.000000 -0.000002 0.000000 -0.000001 -0.000002 1.801248 7.164624 6.210007 4.278684 -22.419664 64.856246 -3.314037 42.722160 9.188943 4.144216 11.217389 13.001452 -8.767608 -4.505834 -0.140126 7.564649 -19.038126 -3.156449 0.000001 0.000000 0.000001 -1.182639 -0.791357 4.803430 0.142065 -1.129439 16.817502 -0.000000 0.000001 0.000001 -0.639151 -3.044706 12.679536 -0.949377 2.256581 36.494329 -0.000001 0.000000 -0.000001 2.335373 -7.209125 24.665963 -1.150410 3.964696 40.380700 -0.000000 0.000006 -0.000000 3.500421 -10.126464 24.303833 -1.606803 8.043530 44.060447 0.000002 -0.000002 -0.000000 0.000001 -0.000001 0.000000 0.000001 0.000000 -0.000001 0.000001 -0.000001 0.000000 -0.000002 -0.000004 -0.000001 -0.000002 -0.000003 -0.000003 -0.000002 -0.000004 -0.000001 -0.000001 -0.000003 -0.000003 0.000001 -0.000002 0.000001 0.000001 -0.000002 0.000001 0.000001 -0.000002 0.000001 0.000001 -0.000002 0.000001 0.000001 -0.000002 0.000001 0.000001 -0.000002 0.000001 0.000001 -0.000002 0.000001 0.000000 -0.000001 -0.000000 -0.000000 0.000001 0.000000 
-2.591045 88.247765 2.754451 -6.630716 -42.797176 -4.175190 -0.000000 -0.000003 -0.000000 -33.228590 3.351232 15.895993 38.184470 -14.797200 -0.140347 -2.103020 0.970439 -10.473565 0.000000 0.000001 0.000000 0.000000 -0.000003 0.000001 3.503723 -14.222966 -18.476377 30.229622 -7.980979 -0.218558 -23.931260 -6.284331 21.793628 0.000000 0.000001 -0.000000 0.000002 0.000002 -0.000003 5.413086 4.507852 -1.355754 10.942773 9.014011 -2.797817 10.942772 9.014006 -2.797816 -0.396288 -0.243080 0.039530 -0.396359 -0.243084 0.039558 0.000001 0.000001 -0.000001 -0.396237 -0.243075 0.039541 -0.396460 -0.243080 0.039543 -0.000001 0.000001 -0.000000 0.000001 0.000001 -0.000000 1.651922 1.278037 -4.774811 -13.161170 1.934718 -65.357254 10.908077 -49.395009 5.732564 15.644550 0.272372 11.604334 9.746087 5.915509 -5.157282 -0.348729 0.108268 0.796553 0.000004 0.000002 0.000003 -1.051981 -7.458465 -8.881141 -0.264315 -0.004974 -23.538217 0.000002 0.000000 -0.000001 1.403891 7.812855 -15.955078 -0.521585 -1.719961 -23.434842 0.000000 0.000001 -0.000000 1.533974 13.295850 -32.549878 -0.634169 -2.794165 -33.621483 -0.000001 -0.000000 -0.000002 3.009067 17.011399 -36.200614 -0.729836 -5.814519 -40.982289 0.000004 -0.000003 -0.000002 0.000000 0.000000 0.000000 0.000000 0.000000 0.000000 -0.000001 0.000000 0.000000 0.000000 0.000001 -0.000001 0.000001 0.000001 -0.000001 0.000000 0.000001 -0.000001 0.000001 0.000000 -0.000001 1.790873 7.263799 6.343746 4.230510 -22.437696 64.803756 -3.375002 42.748614 9.150966 4.175253 11.308924 13.024154 -8.795286 -4.471590 -0.135245 7.565900 -19.041779 -3.125746 0.000001 -0.000001 0.000001 -1.189668 -0.779146 4.874253 0.143128 -1.132724 16.830735 -0.000002 0.000001 -0.000001 -0.638628 -3.046962 12.668552 -0.945873 2.251751 36.413661 0.000001 0.000000 0.000003 2.337759 -7.215121 24.634809 -1.147516 3.961386 40.339312 -0.000003 0.000001 -0.000004 3.498321 -10.116573 24.302074 -1.605006 8.041475 44.041869 0.000001 -0.000002 -0.000000 0.000001 0.000001 0.000000 0.000001 -0.000001 0.000002 0.000001 0.000000 0.000000 -0.000001 0.000003 0.000002 -0.000001 0.000003 0.000002 -0.000001 0.000003 0.000002 -0.000001 0.000003 0.000001 0.000001 -0.000001 0.000000 0.000001 -0.000001 0.000000 0.000001 -0.000001 0.000000 0.000001 -0.000001 0.000000 0.000001 -0.000001 0.000000 0.000001 -0.000001 0.000000 0.000001 -0.000001 0.000000 -0.000000 0.000001 -0.000000 -0.000000 -0.000003 -0.000000 
-2.591309 88.222336 2.730555 -6.631512 -42.783383 -4.176513 -0.000000 0.000001 0.000000 -33.292808 3.336161 15.914856 38.254913 -14.823776 -0.140265 -2.111515 0.972943 -10.479021 -0.000000 0.000004 0.000000 0.000000 -0.000003 0.000000 3.424343 -14.213998 -18.492290 30.397692 -7.963201 -0.200914 -24.018620 -6.295490 21.777421 -0.000000 0.000004 0.000000 -0.000002 -0.000001 0.000002 5.437143 4.504984 -1.359336 10.991383 9.007596 -2.807580 10.991388 9.007597 -2.807579 -0.405938 -0.243312 0.036124 -0.405977 -0.243308 0.036122 0.000002 -0.000002 0.000001 -0.406023 -0.243305 0.036123 -0.405890 -0.243319 0.036125 0.000001 0.000001 0.000000 0.000002 -0.000002 0.000001 1.641748 1.122810 -4.966508 -13.184989 1.927953 -65.234986 10.895633 -49.328429 5.726057 15.649886 0.265161 11.732042 9.693197 5.831111 -5.140920 -0.352729 0.126308 0.796394 -0.000001 0.000002 -0.000001 -1.055020 -7.499173 -9.246579 -0.293975 -0.073785 -24.157505 -0.000000 0.000002 -0.000001 1.418217 7.851961 -15.910765 -0.522027 -1.720213 -23.458683 -0.000004 0.000000 -0.000000 1.561706 13.334300 -32.519750 -0.632782 -2.792162 -33.592107 0.000002 0.000001 -0.000002 3.043296 17.059062 -36.180636 -0.729579 -5.813873 -40.946847 -0.000000 -0.000005 0.000000 0.000001 -0.000001 -0.000000 0.000001 -0.000001 -0.000000 0.000000 -0.000001 0.000000 -0.000000 -0.000001 -0.000003 -0.000000 -0.000002 -0.000004 -0.000000 -0.000001 -0.000003 0.000000 -0.000002 -0.000004 1.780399 7.359051 6.491310 4.159370 -22.454858 64.718460 -3.442103 42.773257 9.100980 4.217854 11.378144 13.035964 -8.869863 -4.469773 -0.167268 7.578907 -19.025880 -3.076747 0.000000 -0.000002 -0.000001 -1.189760 -0.786139 4.888938 0.143920 -1.135165 16.841758 0.000000 0.000000 -0.000000 -0.640181 -3.040164 12.670557 -0.941325 2.244404 36.318441 0.000001 -0.000000 0.000004 2.340077 -7.220490 24.593378 -1.144890 3.958759 40.298273 -0.000003 -0.000003 -0.000001 3.497143 -10.113488 24.317821 -1.605956 8.041409 44.035777 0.000002 0.000001 0.000001 0.000000 0.000001 -0.000001 0.000000 -0.000001 0.000000 0.000000 0.000000 -0.000001 -0.000001 0.000004 -0.000000 -0.000001 0.000005 -0.000000 -0.000001 0.000004 -0.000000 -0.000001 0.000005 -0.000002 0.000001 -0.000001 0.000001 0.000001 -0.000001 0.000001 0.000001 -0.000001 0.000001 0.000001 -0.000001 0.000001 0.000001 -0.000001 0.000001 0.000001 -0.000001 0.000001 0.000001 -0.000001 0.000001 0.000000 -0.000001 0.000000 -0.000000 0.000001 0.000000 
-2.592250 88.198807 2.703359 -6.635085 -42.757066 -4.180499 -0.000000 0.000002 0.000000 -33.354952 3.321892 15.934756 38.309387 -14.863004 -0.141042 -2.105552 0.973729 -10.486629 0.000000 0.000003 0.000000 -0.000001 -0.000001 0.000001 3.360468 -14.207118 -18.496671 30.554868 -7.960457 -0.182960 -24.102894 -6.306034 21.760638 -0.000000 -0.000001 0.000000 0.000002 0.000000 0.000001 5.462162 4.500953 -1.362644 11.041871 8.998796 -2.816725 11.041878 8.998794 -2.816725 -0.415895 -0.243503 0.033413 -0.415890 -0.243508 0.033414 0.000000 -0.000001 -0.000000 -0.415895 -0.243506 0.033416 -0.415819 -0.243496 0.033412 -0.000001 0.000000 -0.000000 0.000000 -0.000001 -0.000000 1.636395 1.000313 -5.152396 -13.237627 1.901848 -65.142704 10.868635 -49.263269 5.723615 15.656848 0.273966 11.888227 9.553759 5.725571 -5.093512 -0.346703 0.165818 0.787854 0.000002 0.000000 0.000001 -1.043328 -7.514359 -9.325882 -0.303099 -0.099397 -24.383277 0.000002 0.000002 -0.000002 1.435239 7.911859 -15.825138 -0.520981 -1.717045 -23.425245 0.000001 0.000000 -0.000002 1.590724 13.390584 -32.459074 -0.631413 -2.790413 -33.559086 -0.000001 0.000001 -0.000001 3.079992 17.115477 -36.144757 -0.729252 -5.813153 -40.909182 0.000003 -0.000005 -0.000002 0.000002 0.000001 -0.000001 0.000002 0.000001 -0.000001 0.000001 0.000001 -0.000000 0.000003 -0.000002 -0.000003 0.000003 -0.000002 -0.000003 0.000003 -0.000002 -0.000003 0.000003 -0.000002 -0.000003 1.769414 7.451835 6.650504 4.079539 -22.495366 64.614204 -3.533433 42.790606 9.045529 4.267581 11.435073 13.022015 -8.887788 -4.461382 -0.173956 7.574518 -19.010377 -3.070703 0.000002 -0.000001 0.000001 -1.186912 -0.795017 4.874259 0.144395 -1.136621 16.846436 0.000000 -0.000002 0.000000 -0.641652 -3.033688 12.673064 -0.935758 2.235602 36.200976 -0.000002 -0.000005 -0.000003 2.342794 -7.226263 24.531951 -1.141473 3.955317 40.241709 -0.000003 -0.000001 -0.000002 3.498218 -10.120773 24.337030 -1.607462 8.040957 44.022458 0.000000 0.000002 -0.000000 0.000001 0.000000 0.000001 -0.000001 -0.000000 0.000001 0.000001 -0.000000 0.000001 -0.000002 0.000000 -0.000000 -0.000002 0.000001 0.000000 -0.000002 0.000000 -0.000000 -0.000002 0.000001 -0.000001 -0.000000 -0.000001 0.000000 -0.000000 -0.000001 0.000000 -0.000000 -0.000001 0.000000 -0.000000 -0.000001 0.000000 -0.000000 -0.000001 0.000000 -0.000000 -0.000001 0.000000 -0.000000 -0.000001 0.000000 -0.000000 0.000002 0.000000 -0.000000 0.000002 0.000000 
